# xmcd
#
# Track frame offsets: 
#        150
#        21307
#        38362
#        54952
#        69794
#        87197
#        102250
#        118924
#        136120
#        154466
#        168735
#        179899
#        199845
#        224412
#        245778
#        265897
#        288211
#        305426
#        322988
#
# Disc length: 4497 seconds
#
# Revision: 0
# Processed by: cddbd v1.5.2PL0 Copyright (c) Steve Scherf et al.
# Submitted via: ExactAudioCopyFreeDBPlugin 1.0
#
DISCID=16118f13
DTITLE=Various Artist - Maverick 14
DYEAR=2015
DGENRE=Country
TTITLE0=Honey Ryder - Worlds Away
TTITLE1=Butch Walker Feat Johnny Depp - 21+
TTITLE2=Miriam Jones - Train
TTITLE3=Stephanie Manns - Vincent Black Magic
TTITLE4=Vivien Searcy - Live It Right
TTITLE5=Allison Moorer - Like It Used To Be
TTITLE6=Stephen Doster - Arizona
TTITLE7=Gretchen Peters - When All You Got Is A Hammer
TTITLE8=Bob Cheevers - One More Nail
TTITLE9=Duffy Kane - Roadhouse Boogie Woogie
TTITLE10=Martin Stephenson - Hobo Trains
TTITLE11=Ray Cooper - Mountainside
TTITLE12=Svante 'Slowman' Torngren - Nothing To Pretend
TTITLE13=Millpond Moon - Only Rivers Never Turn
TTITLE14=John Hinshelwood - No Easy Way
TTITLE15=Mashville - Door To Texas
TTITLE16=Rob Halligan - I Can't Make You Walk
TTITLE17=Eleanor McEvoy - The Thought Of You
TTITLE18=Dan Walsh - Time To Stay
EXTD=
EXTT0=
EXTT1=
EXTT2=
EXTT3=
EXTT4=
EXTT5=
EXTT6=
EXTT7=
EXTT8=
EXTT9=
EXTT10=
EXTT11=
EXTT12=
EXTT13=
EXTT14=
EXTT15=
EXTT16=
EXTT17=
EXTT18=
PLAYORDER=
